<?xml version="1.0" encoding="UTF-8"?>
<svg xmlns="http://www.w3.org/2000/svg" xmlns:xlink="http://www.w3.org/1999/xlink" width="128px" height="128px" viewBox="0 0 128 128" version="1.1">
<g id="surface1">
<path style=" stroke:none;fill-rule:nonzero;fill:rgb(100%,42.352942%,21.568628%);fill-opacity:1;" d="M 127.476562 72.125 C 131.957031 37.0625 107.191406 5.003906 72.191406 0.523438 C 37.1875 -3.957031 5.003906 20.808594 0.523438 55.808594 C -3.957031 90.8125 20.808594 122.933594 55.808594 127.476562 C 90.875 131.957031 122.933594 107.191406 127.476562 72.125 Z M 127.476562 72.125 "/>
<path style=" stroke:none;fill-rule:nonzero;fill:rgb(100%,100%,100%);fill-opacity:1;" d="M 87.101562 41.09375 L 60.097656 68.09375 L 52.480469 60.480469 C 79.039062 33.925781 81.660156 36.230469 87.101562 41.09375 Z M 87.101562 41.09375 "/>
<path style=" stroke:none;fill-rule:nonzero;fill:rgb(100%,42.352942%,21.568628%);fill-opacity:1;" d="M 60.097656 68.734375 C 59.90625 68.734375 59.777344 68.671875 59.648438 68.542969 L 51.96875 60.929688 C 51.714844 60.671875 51.714844 60.289062 51.96875 60.03125 C 78.972656 33.03125 81.789062 35.589844 87.484375 40.707031 C 87.613281 40.835938 87.675781 40.964844 87.675781 41.15625 C 87.675781 41.347656 87.613281 41.476562 87.484375 41.605469 L 60.480469 68.542969 C 60.417969 68.671875 60.226562 68.734375 60.097656 68.734375 Z M 53.378906 60.480469 L 60.097656 67.199219 L 86.140625 41.15625 C 81.40625 36.933594 78.207031 35.652344 53.378906 60.480469 Z M 53.378906 60.480469 "/>
<path style=" stroke:none;fill-rule:nonzero;fill:rgb(100%,100%,100%);fill-opacity:1;" d="M 67.839844 75.835938 L 60.480469 68.480469 L 87.484375 41.476562 C 94.714844 48.769531 83.902344 60.609375 67.839844 75.835938 Z M 67.839844 75.835938 "/>
<path style=" stroke:none;fill-rule:nonzero;fill:rgb(100%,42.352942%,21.568628%);fill-opacity:1;" d="M 67.839844 76.476562 C 67.648438 76.476562 67.519531 76.414062 67.390625 76.285156 L 60.03125 68.925781 C 59.90625 68.800781 59.90625 68.671875 59.90625 68.480469 C 59.90625 68.289062 59.96875 68.160156 60.097656 68.03125 L 87.101562 41.027344 C 87.355469 40.773438 87.738281 40.773438 87.996094 41.027344 C 89.660156 42.5625 90.554688 44.738281 90.492188 46.980469 C 90.363281 54.082031 82.300781 63.105469 68.351562 76.285156 C 68.160156 76.414062 67.96875 76.476562 67.839844 76.476562 Z M 61.375 68.480469 C 65.472656 72.636719 67.199219 74.300781 67.839844 74.941406 C 78.589844 64.703125 89.019531 54.210938 89.082031 46.980469 C 89.148438 45.316406 88.507812 43.652344 87.417969 42.371094 Z M 61.375 68.480469 "/>
<path style=" stroke:none;fill-rule:nonzero;fill:rgb(100%,100%,100%);fill-opacity:1;" d="M 52.609375 60.671875 L 58.050781 66.113281 C 58.175781 66.238281 58.175781 66.367188 58.050781 66.496094 C 57.984375 66.558594 57.984375 66.558594 57.921875 66.558594 L 46.660156 68.992188 C 46.082031 69.054688 45.570312 68.671875 45.441406 68.09375 C 45.378906 67.773438 45.507812 67.457031 45.699219 67.261719 L 52.226562 60.738281 C 52.355469 60.609375 52.546875 60.542969 52.609375 60.671875 Z M 52.609375 60.671875 "/>
<path style=" stroke:none;fill-rule:nonzero;fill:rgb(100%,42.352942%,21.568628%);fill-opacity:1;" d="M 46.46875 69.632812 C 45.507812 69.632812 44.804688 68.863281 44.804688 67.902344 C 44.804688 67.457031 44.996094 67.007812 45.316406 66.6875 L 51.84375 60.160156 C 52.226562 59.839844 52.738281 59.839844 53.121094 60.160156 L 58.5625 65.601562 C 58.945312 65.917969 58.945312 66.496094 58.5625 66.878906 C 58.433594 67.007812 58.304688 67.070312 58.113281 67.136719 L 46.851562 69.566406 C 46.722656 69.566406 46.59375 69.632812 46.46875 69.632812 Z M 52.417969 61.375 L 46.148438 67.648438 C 46.019531 67.773438 45.957031 67.96875 46.082031 68.160156 C 46.148438 68.351562 46.339844 68.414062 46.53125 68.351562 L 57.089844 66.046875 Z M 52.417969 61.375 "/>
<path style=" stroke:none;fill-rule:nonzero;fill:rgb(100%,100%,100%);fill-opacity:1;" d="M 101.371094 26.117188 C 97.273438 22.152344 90.683594 22.28125 86.714844 26.4375 C 82.75 30.597656 82.875 37.125 87.035156 41.09375 C 90.425781 44.355469 95.546875 44.929688 99.578125 42.5 L 92.28125 35.207031 Z M 101.371094 26.117188 "/>
<path style=" stroke:none;fill-rule:nonzero;fill:rgb(100%,42.352942%,21.568628%);fill-opacity:1;" d="M 94.203125 44.613281 C 88.125 44.613281 83.195312 39.683594 83.195312 33.605469 C 83.195312 27.527344 88.125 22.597656 94.203125 22.597656 C 97.019531 22.597656 99.769531 23.6875 101.816406 25.671875 C 101.945312 25.800781 102.007812 25.925781 102.007812 26.117188 C 102.007812 26.3125 101.945312 26.4375 101.816406 26.566406 L 93.179688 35.207031 L 99.960938 41.988281 C 100.21875 42.242188 100.21875 42.628906 99.960938 42.882812 C 99.898438 42.949219 99.898438 42.949219 99.832031 43.011719 C 98.167969 44.035156 96.1875 44.613281 94.203125 44.613281 Z M 94.203125 23.941406 C 88.828125 23.941406 84.476562 28.292969 84.539062 33.667969 C 84.539062 39.042969 88.890625 43.394531 94.265625 43.332031 C 95.738281 43.332031 97.210938 43.011719 98.554688 42.308594 L 91.835938 35.652344 C 91.707031 35.523438 91.644531 35.398438 91.644531 35.207031 C 91.644531 35.011719 91.707031 34.886719 91.835938 34.757812 L 100.410156 26.183594 C 98.683594 24.710938 96.507812 23.941406 94.203125 23.941406 Z M 94.203125 23.941406 "/>
<path style=" stroke:none;fill-rule:nonzero;fill:rgb(100%,100%,100%);fill-opacity:1;" d="M 101.5625 26.3125 L 101.433594 26.183594 L 92.28125 35.207031 L 99.511719 42.4375 C 100.21875 41.988281 100.921875 41.476562 101.496094 40.898438 C 105.59375 36.867188 105.59375 30.34375 101.5625 26.3125 Z M 101.5625 26.3125 "/>
<path style=" stroke:none;fill-rule:nonzero;fill:rgb(100%,42.352942%,21.568628%);fill-opacity:1;" d="M 99.578125 43.140625 C 99.386719 43.140625 99.257812 43.074219 99.128906 42.949219 L 91.835938 35.652344 C 91.707031 35.523438 91.644531 35.398438 91.644531 35.207031 C 91.644531 35.011719 91.707031 34.886719 91.835938 34.757812 L 100.921875 25.671875 C 101.175781 25.414062 101.5625 25.414062 101.816406 25.671875 L 102.007812 25.800781 C 106.296875 30.085938 106.296875 36.996094 102.074219 41.347656 C 101.433594 41.988281 100.730469 42.5625 99.960938 43.011719 C 99.769531 43.074219 99.640625 43.140625 99.578125 43.140625 Z M 93.179688 35.207031 L 99.640625 41.667969 C 100.152344 41.347656 100.664062 40.898438 101.050781 40.515625 C 104.695312 36.867188 104.886719 30.917969 101.371094 27.078125 Z M 93.179688 35.207031 "/>
<path style=" stroke:none;fill-rule:nonzero;fill:rgb(100%,100%,100%);fill-opacity:1;" d="M 88.1875 42.242188 C 86.652344 40.707031 84.15625 40.707031 82.621094 42.242188 L 58.496094 66.367188 L 62.527344 70.398438 L 88.058594 48.003906 C 89.722656 46.59375 89.851562 44.097656 88.445312 42.4375 C 88.316406 42.371094 88.25 42.308594 88.1875 42.242188 Z M 88.1875 42.242188 "/>
<path style=" stroke:none;fill-rule:nonzero;fill:rgb(100%,42.352942%,21.568628%);fill-opacity:1;" d="M 62.464844 71.039062 C 62.273438 71.039062 62.144531 70.976562 62.015625 70.847656 L 57.984375 66.816406 C 57.730469 66.558594 57.730469 66.175781 57.984375 65.917969 L 82.109375 41.796875 C 83.902344 40.003906 86.78125 40.003906 88.570312 41.796875 C 90.363281 43.585938 90.363281 46.46875 88.570312 48.257812 C 88.507812 48.324219 88.445312 48.386719 88.378906 48.449219 L 62.847656 70.847656 C 62.785156 70.976562 62.65625 71.039062 62.464844 71.039062 Z M 59.394531 66.367188 L 62.527344 69.503906 L 87.613281 47.492188 C 89.019531 46.339844 89.148438 44.226562 87.996094 42.820312 C 86.84375 41.410156 84.730469 41.285156 83.324219 42.4375 C 83.261719 42.5 83.195312 42.5625 83.070312 42.628906 Z M 59.394531 66.367188 "/>
<path style=" stroke:none;fill-rule:nonzero;fill:rgb(100%,100%,100%);fill-opacity:1;" d="M 40.003906 93.820312 C 39.75 93.945312 39.621094 94.203125 39.683594 94.457031 L 40.773438 99.066406 C 41.027344 99.707031 40.644531 100.472656 39.941406 100.664062 C 39.429688 100.855469 38.851562 100.664062 38.53125 100.28125 L 31.492188 93.308594 L 54.464844 70.335938 L 62.398438 70.460938 L 67.773438 75.835938 C 66.496094 76.925781 58.753906 84.414062 40.003906 93.820312 Z M 40.003906 93.820312 "/>
<path style=" stroke:none;fill-rule:nonzero;fill:rgb(100%,42.352942%,21.568628%);fill-opacity:1;" d="M 39.492188 101.304688 C 38.980469 101.304688 38.46875 101.113281 38.148438 100.730469 L 31.175781 93.753906 C 31.046875 93.625 30.980469 93.5 30.980469 93.308594 C 30.980469 93.113281 31.046875 92.988281 31.175781 92.859375 L 54.144531 69.886719 C 54.273438 69.757812 54.464844 69.695312 54.59375 69.695312 L 62.527344 69.824219 C 62.71875 69.824219 62.847656 69.886719 62.976562 70.015625 L 68.351562 75.390625 C 68.480469 75.519531 68.542969 75.710938 68.542969 75.902344 C 68.542969 76.09375 68.480469 76.222656 68.289062 76.351562 L 67.839844 76.734375 C 61.054688 82.683594 51.84375 88.636719 40.386719 94.332031 L 41.476562 98.875 C 41.667969 99.707031 41.285156 100.601562 40.515625 101.050781 C 40.132812 101.242188 39.8125 101.304688 39.492188 101.304688 Z M 32.453125 93.308594 L 39.042969 99.832031 C 39.238281 100.152344 39.621094 100.28125 39.941406 100.089844 C 40.261719 99.898438 40.386719 99.511719 40.195312 99.195312 L 39.109375 94.585938 C 38.980469 94.011719 39.238281 93.5 39.75 93.242188 C 51.074219 87.546875 60.226562 81.660156 66.945312 75.835938 L 62.207031 71.101562 L 54.851562 70.976562 Z M 32.453125 93.308594 "/>
<path style=" stroke:none;fill-rule:nonzero;fill:rgb(100%,100%,100%);fill-opacity:1;" d="M 26.054688 98.808594 L 31.558594 93.308594 L 39.75 101.496094 L 26.695312 100.601562 C 26.117188 100.539062 25.734375 100.027344 25.800781 99.449219 C 25.800781 99.195312 25.863281 98.9375 26.054688 98.808594 Z M 26.054688 98.808594 "/>
<path style=" stroke:none;fill-rule:nonzero;fill:rgb(100%,42.352942%,21.568628%);fill-opacity:1;" d="M 39.75 102.074219 L 26.628906 101.175781 C 25.671875 101.113281 25.03125 100.28125 25.09375 99.320312 C 25.160156 98.9375 25.285156 98.554688 25.605469 98.296875 L 31.109375 92.792969 C 31.367188 92.539062 31.75 92.539062 32.003906 92.792969 L 40.195312 100.984375 C 40.386719 101.175781 40.453125 101.433594 40.324219 101.6875 C 40.195312 101.945312 40.003906 102.074219 39.75 102.074219 Z M 31.558594 94.203125 L 26.503906 99.257812 C 26.3125 99.386719 26.3125 99.707031 26.503906 99.832031 C 26.566406 99.898438 26.628906 99.960938 26.757812 99.960938 L 38.085938 100.730469 Z M 31.558594 94.203125 "/>
<path style=" stroke:none;fill-rule:nonzero;fill:rgb(100%,42.352942%,21.568628%);fill-opacity:1;" d="M 52.226562 73.277344 C 51.84375 73.277344 51.585938 72.957031 51.585938 72.636719 C 51.585938 72.445312 51.648438 72.320312 51.777344 72.191406 L 57.984375 65.984375 C 58.242188 65.726562 58.625 65.726562 58.882812 65.984375 L 62.914062 70.015625 C 63.105469 70.207031 63.167969 70.398438 63.105469 70.65625 C 63.039062 70.847656 62.847656 71.039062 62.59375 71.101562 L 52.355469 73.277344 C 52.289062 73.277344 52.226562 73.277344 52.226562 73.277344 Z M 58.433594 67.328125 L 54.210938 71.550781 L 61.121094 70.078125 Z M 58.433594 67.328125 "/>
<path style=" stroke:none;fill-rule:nonzero;fill:rgb(100%,100%,100%);fill-opacity:1;" d="M 62.398438 70.460938 L 55.363281 72 C 54.851562 72.125 54.335938 71.804688 54.210938 71.292969 C 54.144531 70.976562 54.210938 70.65625 54.464844 70.398438 L 58.367188 66.496094 Z M 62.398438 70.460938 "/>
<path style=" stroke:none;fill-rule:nonzero;fill:rgb(100%,42.352942%,21.568628%);fill-opacity:1;" d="M 55.234375 72.636719 C 54.335938 72.636719 53.632812 71.933594 53.632812 71.039062 C 53.632812 70.589844 53.824219 70.207031 54.082031 69.886719 L 57.984375 65.984375 C 58.242188 65.726562 58.625 65.726562 58.882812 65.984375 L 62.914062 70.015625 C 63.105469 70.207031 63.167969 70.398438 63.105469 70.65625 C 63.039062 70.847656 62.847656 71.039062 62.59375 71.101562 L 55.554688 72.636719 C 55.425781 72.636719 55.296875 72.636719 55.234375 72.636719 Z M 58.433594 67.328125 L 54.976562 70.78125 C 54.851562 70.910156 54.851562 71.039062 54.914062 71.167969 C 54.976562 71.292969 55.105469 71.359375 55.296875 71.359375 L 61.183594 70.078125 Z M 58.433594 67.328125 "/>
<path style=" stroke:none;fill-rule:nonzero;fill:rgb(100%,42.352942%,21.568628%);fill-opacity:1;" d="M 101.625 32.453125 C 101.496094 32.070312 101.050781 31.878906 100.664062 32.003906 C 100.28125 32.132812 100.089844 32.582031 100.21875 32.964844 C 100.21875 33.03125 100.28125 33.09375 100.28125 33.15625 C 100.664062 33.925781 100.539062 34.886719 100.027344 35.589844 C 99.769531 35.910156 99.832031 36.355469 100.089844 36.613281 C 100.410156 36.867188 100.855469 36.804688 101.113281 36.484375 C 102.074219 35.269531 102.265625 33.734375 101.625 32.453125 Z M 101.625 32.453125 "/>
</g>
</svg>
