<svg xmlns="http://www.w3.org/2000/svg" viewBox="0 0 229.65 231.79"><defs><style>.cls-1{fill:#57cc99;}.cls-2{fill:#0c271b;}</style></defs><g id="Layer_2" data-name="Layer 2"><g id="Layer_2-2" data-name="Layer 2"><path class="cls-1" d="M219.65,65.9a.92.92,0,0,1,.81,1.21,243.45,243.45,0,0,1-33.62,67c-13,18.13-48.82,47.3-81.12,59.9a2.72,2.72,0,0,1-2.89-.6L38.66,130.82a2.75,2.75,0,0,1-.67-2.88C49.6,95.79,78.75,58.42,95.86,45.35A225.82,225.82,0,0,1,122.8,27.63a222.75,222.75,0,0,1,39-17.13.9.9,0,0,1,1.19.77,61.57,61.57,0,0,0,18.61,38.18A61.4,61.4,0,0,0,219.65,65.9Z"/><path class="cls-1" d="M221.2,61.51a1.9,1.9,0,0,0,1.94-1.33,144.13,144.13,0,0,0,6.48-45.29c-.08-4-.32-7.8-.69-11.45a3.52,3.52,0,0,0-1-2.32,3.46,3.46,0,0,0-2.34-1,172.7,172.7,0,0,0-43.44,3.74c-4.82,1-9.38,2.25-13.65,3.55a1.9,1.9,0,0,0-1.33,2,58.82,58.82,0,0,0,17.43,36A58.83,58.83,0,0,0,221.2,61.51Z"/><path class="cls-1" d="M137.81,184.38l11,46.73a.88.88,0,0,0,1.5.4L196.83,182a.88.88,0,0,0,.21-.79l-8.7-40.09a1,1,0,0,0-1.69-.4c-5.67,7.21-13.86,15.52-23.3,23.81s-17.42,14.29-25.1,18.81A1,1,0,0,0,137.81,184.38Z"/><path class="cls-1" d="M49.7,94.06a.89.89,0,0,1-1,.45L.7,84.66a.88.88,0,0,1-.44-1.49L48.61,35.45a.84.84,0,0,1,.78-.24l41.4,7.71a.91.91,0,0,1,.41,1.59,183.57,183.57,0,0,0-24.3,24A152,152,0,0,0,49.7,94.06Z"/><path class="cls-2" d="M32.22,165a66.76,66.76,0,0,0-22.12,60.4A60.49,60.49,0,0,0,42,221c14.71-6.36,23.75-15.84,26.8-20.29Z"/><path class="cls-2" d="M61.88,153.35l38-39.26a1,1,0,0,0,0-1.52l-13.74-12.1a1.05,1.05,0,0,1,.48-1.81l56.27-11.6a1,1,0,0,1,1.24,1.2l-9.34,55a1,1,0,0,1-1.76.57l-12.34-12.27a1,1,0,0,0-1.49,0L80.63,171.85Z"/><path class="cls-1" d="M94.08,183.89l-16,17.4a2.52,2.52,0,0,1-3.58.05L31.06,159a2.53,2.53,0,0,1,0-3.58L48,138Z"/></g></g></svg>