<?xml version="1.0" encoding="UTF-8"?> <svg xmlns="http://www.w3.org/2000/svg" width="150.691" height="206.594" viewBox="0 0 150.691 206.594"><g id="logo-header" transform="translate(0 55.445)"><g id="Groupe_18032"><path id="Tracé_18427" d="M137.653 267.148H0L.117 60.555h150.574l-.117 193.672a12.922 12.922 0 0 1-12.921 12.921" transform="translate(0 -116)" fill="#0069b4"></path><path id="Tracé_18428" d="M82.915 6c-3.753 4.644-5.849 3.32-9.231 5.97 2.468.135 3.2-.368 4.111-.184 0 0-1.871 1.552-7.943 2.326C61.37 15.193 49.814 19.1 39.1 23.728a4.4 4.4 0 0 1-1.3.324c-1.017-.07-.821-.381-.706-.539a7.714 7.714 0 0 1 .986-.689 205.671 205.671 0 0 1 24.184-12.06C69.455 7.8 71.459 8.32 74.276 6.541a35.13 35.13 0 0 1-4.513 3.1c5.2-2.283 10.36-1.598 13.152-3.641" transform="translate(33.192 5.381)" fill="#ffde14"></path><path id="Tracé_18429" d="M31.433 19.929c.4-1.537 2.779-3.734 1.8-3.754a11.055 11.055 0 0 0-6.154 2.017c-.226.156-.662 1.108-.539 1.161.408.173 4.693 1.328 4.889.577" transform="translate(23.794 14.509)" fill="#fff"></path><path id="Tracé_18430" d="M110.334 35.333c-12.206-6.41-26.429-1.419-37.935 3.916-6.657 3.052-13.286 6.509-20.058 9.023-3.352 1.171-11.235 3.963-16.258 3.178-2.094-.656-2.512-1.779-2.512-1.779-1.681-2.567-.78-7.033 3.612-11.153 7.416-6.959 15.97-9.4 19.33-11.339 4.153-2.4 5.657-4.521 6.215-6.266.059-.156 0-.207-.15-.207a17.887 17.887 0 0 1-1.984.222 5.51 5.51 0 0 1-1.024-.093 3.5 3.5 0 0 1-1.916-.734s1.764-1.649 2.965-3.058a6.7 6.7 0 0 0 1-1.487c.224-.484.1-.744-.23-.837-2.855-.556-4.47-1.243-8.184-1.243-.785 0-1.666.03-2.669.1a28.888 28.888 0 0 0-10.844 3.013 2.985 2.985 0 0 0-.858.941c-3.616 5.743-11.542 9.829-17.2 16.619-.2.214-.423.41-.622.632a27.961 27.961 0 0 0-7.353-1.554 11.86 11.86 0 0 0-4.955.463c-1.4.588 3.183-.14 6.094 2.32 1.383 1.169-2.683-.131-6.962 1.852-1.578.738-1.683.943-1.163.979.4.028 1.171-.044 1.92-.055 1.087-.017 1.926 0 2.588.046a5.493 5.493 0 0 1 2.6.647c.827.465-2.068 1.229-4.424 3.462-.607.581-.732.8-.533.818a6.831 6.831 0 0 0 1.539-.489 12.713 12.713 0 0 1 5.268-.867c.137.009.247.025.357.038a21.371 21.371 0 0 0-1.088 3.246A18.173 18.173 0 0 0 14.482 52a27.972 27.972 0 0 0 2.354 7.551 28.428 28.428 0 0 0 13.246 13.181l-3.9 3.312a18.406 18.406 0 0 0-3.682 4.808c-.863 1.54-1.3 3.2-.886 3.144.184-.023.537-.378 1.091-1.22 1.54-2.333 5.035-5.168 5.963-5.285.285-.034.328.176.017.728-2.047 3.587-1.322 8.886-.708 8.808.108-.013.212-.192.3-.573 1.136-5.024 3.7-7.321 4.684-7.444.262-.034.414.087.393.359-.385 4.978 1.728 9.269 2.409 9.182.169-.021.25-.315.182-.933a20.561 20.561 0 0 1 2.127-11.056c.285-.577.512-1.112-.455-1.575-.167-.08-.825-.307-1.789-.692a34.632 34.632 0 0 1-9-5.716 23.707 23.707 0 0 1-8.281-22.2A29.076 29.076 0 0 1 19.1 43.4a35.19 35.19 0 0 1 3.367-6.765c3.682-5.06 8.67-8.6 12.047-11.472 4.557-3.874 5.526-5.634 5.763-6.238a.894.894 0 0 1 .552-.62A27.407 27.407 0 0 1 51.7 15.654a23.459 23.459 0 0 1 5.949.977c1.184.2-3.79 4.838-3.79 4.838a3.742 3.742 0 0 0 3.641 2.4h.08c-1.554 4.124-22.974 8.182-27.611 18.425a12.505 12.505 0 0 0-.865 1.827 9.862 9.862 0 0 0-.085 5.877 8.54 8.54 0 0 0 .463 1.358 4.32 4.32 0 0 0 1.04 1.307l.015.021c5.354 5.5 16.981 2.349 23.465.541 7.071-2.167 14.177-5.486 20.88-8.431 10.322-4.432 22.3-9.95 33.194-4.862A49.977 49.977 0 0 1 124.725 52.8c2.853 3.54 6.862 9.9.379 11.732-5.633 1.6-11.775.708-17.546-.095-62.9-10.33-48.982 23.242-22.272 19.005l-.087-.581A24.821 24.821 0 0 1 71 80.666c-3.724-1.819-8.518-6.145-5.8-10.48 2.806-3.7 8.289-4.447 12.671-4.946 9.717-.778 19.544.67 29.119 2.436 7.234 1.275 23.885 4.278 25.674-5.942 1.013-10.095-14.12-22.261-22.333-26.4" transform="translate(5.734 12.088)" fill="#fff"></path><path id="Tracé_18431" d="M6.51 56.139h3.59V71h7.771v3.455H6.51Z" transform="translate(5.84 50.363)" fill="#fff"></path><path id="Tracé_18432" d="M23.34 70.564a5.03 5.03 0 0 0 1.74-2.081 7.629 7.629 0 0 0 0-6.071 5.03 5.03 0 0 0-1.74-2.081 4.5 4.5 0 0 0-4.959 0 5.041 5.041 0 0 0-1.738 2.081 7.629 7.629 0 0 0 0 6.071 5.041 5.041 0 0 0 1.738 2.081 4.5 4.5 0 0 0 4.959 0m-6.83 3.126a8.451 8.451 0 0 1-3.033-3.39 11.3 11.3 0 0 1 0-9.709A8.439 8.439 0 0 1 16.51 57.2a8.284 8.284 0 0 1 8.691 0 8.55 8.55 0 0 1 3.033 3.388 11.208 11.208 0 0 1 0 9.709A8.563 8.563 0 0 1 25.2 73.69a7.885 7.885 0 0 1-4.341 1.231 7.93 7.93 0 0 1-4.35-1.231" transform="translate(11.106 50.214)" fill="#fff"></path><path id="Rectangle_3526" transform="translate(42.15 106.502)" fill="#fff" d="M0 0h3.587v18.319H0z"></path><path id="Tracé_18433" d="M34.487 60.417a3.373 3.373 0 0 0-2.457-.823h-2.923v6.386h2.923a3.338 3.338 0 0 0 2.457-.839 3.733 3.733 0 0 0 0-4.724m.913 14.041-2.99-5.1h-3.3v5.1h-3.589V56.139h6.708a7.49 7.49 0 0 1 3.574.81 5.661 5.661 0 0 1 2.337 2.3 7.234 7.234 0 0 1 .82 3.534 7.069 7.069 0 0 1-.831 3.519 5.553 5.553 0 0 1-2.358 2.263l3.476 5.889Z" transform="translate(22.895 50.363)" fill="#fff"></path><path id="Tracé_18434" d="M37.592 58.5a2.236 2.236 0 0 0-.586 1.609 3.049 3.049 0 0 0 .321 1.362 10.2 10.2 0 0 0 1.25 1.779 9.716 9.716 0 0 0 2.115-1.75 2.507 2.507 0 0 0 .588-1.6 1.991 1.991 0 0 0-.544-1.465 2.033 2.033 0 0 0-1.516-.55 2.142 2.142 0 0 0-1.628.615m4.883 12.419-4.407-5.181a8.249 8.249 0 0 0-2.225 1.948 3.453 3.453 0 0 0-.63 2.028 2.645 2.645 0 0 0 .962 2.121 3.771 3.771 0 0 0 2.514.81 4.771 4.771 0 0 0 3.787-1.726m3.32 3.9-2.058-2.434a6.591 6.591 0 0 1-5.181 2.356 6.322 6.322 0 0 1-2.791-.6 4.662 4.662 0 0 1-1.937-1.688 4.48 4.48 0 0 1-.7-2.474 5.172 5.172 0 0 1 .876-2.969 10.555 10.555 0 0 1 2.887-2.658 9.169 9.169 0 0 1-1.438-2.17 5.005 5.005 0 0 1-.421-2.017 4 4 0 0 1 1.14-2.982 4.149 4.149 0 0 1 3.045-1.127 3.842 3.842 0 0 1 2.812 1.023 3.735 3.735 0 0 1 1.042 2.8 4.259 4.259 0 0 1-.765 2.487 9.75 9.75 0 0 1-2.535 2.3l3.83 4.5a13.2 13.2 0 0 0 .95-3.324l1.706.653a13.49 13.49 0 0 1-1.351 4.189l2.081 2.459Z" transform="translate(29.721 50.289)" fill="#ffde14"></path><path id="Tracé_18435" d="M44.648 73.7a8.415 8.415 0 0 1-3.011-3.377 11.409 11.409 0 0 1 0-9.761 8.4 8.4 0 0 1 3.011-3.375 8.271 8.271 0 0 1 7.949-.379 7.522 7.522 0 0 1 2.734 2.407l-2.3 2.512a4.69 4.69 0 0 0-3.9-2.146 4.561 4.561 0 0 0-2.569.746 4.987 4.987 0 0 0-1.762 2.085 7.608 7.608 0 0 0 0 6.071 5 5 0 0 0 1.759 2.081 4.561 4.561 0 0 0 2.569.746 4.677 4.677 0 0 0 3.9-2.172l2.3 2.512a7.417 7.417 0 0 1-2.745 2.434 7.919 7.919 0 0 1-3.654.837 7.831 7.831 0 0 1-4.281-1.221" transform="translate(36.37 50.214)" fill="#fff"></path><path id="Tracé_18436" d="M63.3 56.139v18.318h-3.59v-7.51h-7.04v7.511h-3.585V56.139h3.585v7.222h7.04v-7.222Z" transform="translate(44.035 50.363)" fill="#fff"></path><path id="Tracé_18437" d="M69.989 71.056v3.4h-12V56.138H69.7v3.4h-8.145v3.982h7.194v3.3h-7.194v4.238Z" transform="translate(52.022 50.363)" fill="#fff"></path><path id="Tracé_18438" d="M74.261 60.417a3.373 3.373 0 0 0-2.457-.823h-2.923v6.386H71.8a3.338 3.338 0 0 0 2.457-.839 3.733 3.733 0 0 0 0-4.724m.909 14.041-2.99-5.1h-3.3v5.1h-3.581V56.139H72a7.49 7.49 0 0 1 3.574.81 5.65 5.65 0 0 1 2.337 2.3 7.234 7.234 0 0 1 .82 3.534 7.069 7.069 0 0 1-.831 3.519 5.553 5.553 0 0 1-2.358 2.263l3.476 5.889Z" transform="translate(58.577 50.363)" fill="#fff"></path><path id="Tracé_18439" d="M14.375 68.495v8.833h-1.343l-4.849-5.982v5.982H6.562v-8.833h1.345l4.847 5.982v-5.982Z" transform="translate(5.887 61.448)" fill="#fff"></path><path id="Tracé_18440" d="M16.593 74.529a2.349 2.349 0 0 0 0-3.052 1.917 1.917 0 0 0-1.432-.581 1.9 1.9 0 0 0-1.427.581 2.367 2.367 0 0 0 0 3.052 1.9 1.9 0 0 0 1.427.581 1.917 1.917 0 0 0 1.432-.581m-3.267 1.489a3.2 3.2 0 0 1-1.275-1.231A3.483 3.483 0 0 1 11.594 73a3.445 3.445 0 0 1 .457-1.778A3.218 3.218 0 0 1 13.326 70a4.051 4.051 0 0 1 3.68 0 3.231 3.231 0 0 1 1.275 1.224A3.445 3.445 0 0 1 18.739 73a3.483 3.483 0 0 1-.457 1.785 3.211 3.211 0 0 1-1.275 1.231 4.051 4.051 0 0 1-3.68 0" transform="translate(10.401 62.403)" fill="#fff"></path><path id="Tracé_18441" d="M20.648 76.674a1.838 1.838 0 0 1-.672.34 3.008 3.008 0 0 1-.835.116 2.365 2.365 0 0 1-1.709-.581 2.25 2.25 0 0 1-.6-1.692v-3.243h-1.107v-1.261h1.106v-1.539H18.4v1.539h1.8v1.262h-1.8v3.2a1.07 1.07 0 0 0 .239.751.893.893 0 0 0 .691.26 1.379 1.379 0 0 0 .878-.279Z" transform="translate(14.107 61.734)" fill="#fff"></path><path id="Tracé_18442" d="M22.923 69.559v1.5a2.049 2.049 0 0 0-.364-.038 1.9 1.9 0 0 0-1.432.537 2.146 2.146 0 0 0-.514 1.546v3.267h-1.572v-6.736h1.495v.985a2.61 2.61 0 0 1 2.387-1.06" transform="translate(17.082 62.403)" fill="#fff"></path><path id="Tracé_18443" d="M23.7 71.266a1.889 1.889 0 0 0-.634 1.2h3.8a1.841 1.841 0 0 0-1.9-1.643 1.891 1.891 0 0 0-1.275.448m4.64 2.24h-5.258a1.839 1.839 0 0 0 .723 1.18 2.357 2.357 0 0 0 1.449.436 2.432 2.432 0 0 0 1.823-.734l.84.973a2.845 2.845 0 0 1-1.142.82 4.509 4.509 0 0 1-3.5-.161 3.189 3.189 0 0 1-1.3-1.233A3.483 3.483 0 0 1 21.5 73a3.54 3.54 0 0 1 .446-1.774A3.184 3.184 0 0 1 23.187 70a3.6 3.6 0 0 1 1.783-.44 3.5 3.5 0 0 1 1.751.434 3.074 3.074 0 0 1 1.207 1.226 3.727 3.727 0 0 1 .433 1.823c0 .106-.008.266-.025.465" transform="translate(19.292 62.403)" fill="#fff"></path><path id="Tracé_18444" d="M32.124 76.058a1.87 1.87 0 0 0 .717-.74 2.483 2.483 0 0 0 0-2.22 1.878 1.878 0 0 0-.717-.738 2.133 2.133 0 0 0-2.034 0 1.861 1.861 0 0 0-.715.738 2.451 2.451 0 0 0 0 2.22 1.853 1.853 0 0 0 .715.74 2.133 2.133 0 0 0 2.034 0m2.525-7.843v9.362h-1.506v-.871a2.419 2.419 0 0 1-.962.719 3.236 3.236 0 0 1-1.262.241 3.534 3.534 0 0 1-1.74-.429 3.086 3.086 0 0 1-1.212-1.22 3.945 3.945 0 0 1 0-3.614 3.1 3.1 0 0 1 1.212-1.21 3.514 3.514 0 0 1 1.74-.429 3.172 3.172 0 0 1 1.218.228 2.45 2.45 0 0 1 .943.679v-3.456Z" transform="translate(24.697 61.197)" fill="#fff"></path><path id="Tracé_18445" d="M36.185 68.2h1.846l-2.185 1.73h-1.357Zm-1.878 4.282a1.889 1.889 0 0 0-.634 1.2h3.806a1.844 1.844 0 0 0-1.9-1.643 1.891 1.891 0 0 0-1.275.448m4.64 2.24h-5.259a1.839 1.839 0 0 0 .723 1.18 2.359 2.359 0 0 0 1.451.436 2.423 2.423 0 0 0 1.819-.734l.842.973a2.838 2.838 0 0 1-1.144.82 4.508 4.508 0 0 1-3.5-.161A3.191 3.191 0 0 1 32.575 76a3.465 3.465 0 0 1-.459-1.785 3.54 3.54 0 0 1 .446-1.774 3.2 3.2 0 0 1 1.238-1.224 3.6 3.6 0 0 1 1.783-.44 3.512 3.512 0 0 1 1.753.434 3.081 3.081 0 0 1 1.2 1.226 3.727 3.727 0 0 1 .433 1.823c0 .106-.008.266-.025.465" transform="translate(28.812 61.185)" fill="#fff"></path><path id="Tracé_18446" d="M41.531 74.529a2.361 2.361 0 0 0 0-3.052 1.892 1.892 0 0 0-1.425-.581 2.013 2.013 0 0 0-1.019.258 1.886 1.886 0 0 0-.715.738 2.471 2.471 0 0 0 0 2.222 1.886 1.886 0 0 0 .715.738 2.013 2.013 0 0 0 1.019.258 1.892 1.892 0 0 0 1.425-.581m.5-4.542a3.1 3.1 0 0 1 1.212 1.21 3.933 3.933 0 0 1 0 3.616 3.081 3.081 0 0 1-1.212 1.218 3.563 3.563 0 0 1-1.751.429 2.7 2.7 0 0 1-2.148-.909v3.269h-1.568v-9.185h1.495v.882a2.436 2.436 0 0 1 .96-.719 3.246 3.246 0 0 1 1.263-.239 3.542 3.542 0 0 1 1.751.429" transform="translate(32.802 62.403)" fill="#fff"></path><path id="Tracé_18447" d="M44.721 75.041a1.474 1.474 0 0 0 .647-.776v-.782h-1.62c-.9 0-1.356.3-1.356.9a.811.811 0 0 0 .34.681 1.532 1.532 0 0 0 .941.252 2.019 2.019 0 0 0 1.049-.271m1.434-4.769a2.773 2.773 0 0 1 .784 2.151v3.95h-1.483v-.821a1.81 1.81 0 0 1-.823.675 3.2 3.2 0 0 1-1.288.233 3.168 3.168 0 0 1-1.318-.256 2.072 2.072 0 0 1-.873-.721 1.845 1.845 0 0 1-.307-1.042 1.788 1.788 0 0 1 .672-1.457 3.341 3.341 0 0 1 2.117-.546h1.732v-.1a1.386 1.386 0 0 0-.419-1.083 1.809 1.809 0 0 0-1.25-.379 3.6 3.6 0 0 0-1.112.176 2.74 2.74 0 0 0-.922.493l-.617-1.15a3.8 3.8 0 0 1 1.267-.617 5.6 5.6 0 0 1 1.571-.216 3.264 3.264 0 0 1 2.269.713" transform="translate(36.645 62.402)" fill="#fff"></path><path id="Tracé_18448" d="M49.038 69.559v1.5a2.049 2.049 0 0 0-.364-.038 1.9 1.9 0 0 0-1.432.537 2.146 2.146 0 0 0-.514 1.546v3.267h-1.572v-6.736h1.495v.985a2.608 2.608 0 0 1 2.387-1.06" transform="translate(40.51 62.403)" fill="#fff"></path><path id="Tracé_18449" d="M52.529 76.674a1.838 1.838 0 0 1-.672.34 3.008 3.008 0 0 1-.835.116 2.365 2.365 0 0 1-1.709-.581 2.25 2.25 0 0 1-.6-1.692v-3.243h-1.107v-1.261h1.106v-1.539h1.569v1.539h1.8v1.262h-1.8v3.2a1.07 1.07 0 0 0 .239.751.893.893 0 0 0 .691.26 1.379 1.379 0 0 0 .878-.279Z" transform="translate(42.708 61.734)" fill="#fff"></path><path id="Tracé_18450" d="M52.7 71.266a1.889 1.889 0 0 0-.634 1.2h3.806a1.844 1.844 0 0 0-1.9-1.643 1.891 1.891 0 0 0-1.275.448m4.64 2.24h-5.255a1.839 1.839 0 0 0 .723 1.18 2.359 2.359 0 0 0 1.451.436 2.423 2.423 0 0 0 1.819-.734l.842.973a2.838 2.838 0 0 1-1.144.82 4.508 4.508 0 0 1-3.5-.161 3.191 3.191 0 0 1-1.3-1.233 3.466 3.466 0 0 1-.46-1.792 3.54 3.54 0 0 1 .446-1.774A3.2 3.2 0 0 1 52.2 70a3.6 3.6 0 0 1 1.783-.44 3.5 3.5 0 0 1 1.751.434 3.074 3.074 0 0 1 1.207 1.226 3.727 3.727 0 0 1 .433 1.823c0 .106-.008.266-.025.465" transform="translate(45.316 62.403)" fill="#fff"></path><path id="Tracé_18451" d="M65.435 70.3a3.007 3.007 0 0 1 .742 2.218v3.859h-1.571v-3.66a1.973 1.973 0 0 0-.389-1.33 1.4 1.4 0 0 0-1.117-.448 1.629 1.629 0 0 0-1.269.524 2.136 2.136 0 0 0-.478 1.493v3.421h-1.57v-3.66a1.984 1.984 0 0 0-.389-1.33 1.4 1.4 0 0 0-1.119-.448 1.632 1.632 0 0 0-1.275.512 2.15 2.15 0 0 0-.47 1.5v3.421h-1.569v-6.738h1.495v.857a2.464 2.464 0 0 1 .944-.691 3.2 3.2 0 0 1 1.256-.241 3.013 3.013 0 0 1 1.337.285 2.157 2.157 0 0 1 .924.839 2.821 2.821 0 0 1 1.066-.825 3.44 3.44 0 0 1 1.446-.3 2.721 2.721 0 0 1 2.009.738" transform="translate(49.306 62.402)" fill="#fff"></path><path id="Tracé_18452" d="M63.9 71.266a1.889 1.889 0 0 0-.634 1.2h3.806a1.844 1.844 0 0 0-1.9-1.643 1.891 1.891 0 0 0-1.275.448m4.64 2.24h-5.255A1.839 1.839 0 0 0 64 74.687a2.359 2.359 0 0 0 1.451.436 2.423 2.423 0 0 0 1.819-.734l.842.973a2.838 2.838 0 0 1-1.144.82 4.5 4.5 0 0 1-3.5-.161 3.185 3.185 0 0 1-1.3-1.233A3.465 3.465 0 0 1 61.713 73a3.54 3.54 0 0 1 .446-1.774A3.2 3.2 0 0 1 63.4 70a3.6 3.6 0 0 1 1.783-.44 3.5 3.5 0 0 1 1.751.434 3.074 3.074 0 0 1 1.207 1.226 3.727 3.727 0 0 1 .433 1.823c0 .106-.008.266-.025.465" transform="translate(55.364 62.403)" fill="#fff"></path><path id="Tracé_18453" d="M72 70.3a2.949 2.949 0 0 1 .766 2.208v3.861H71.2v-3.655a1.9 1.9 0 0 0-.414-1.332 1.525 1.525 0 0 0-1.18-.448 1.807 1.807 0 0 0-1.37.524 2.085 2.085 0 0 0-.5 1.506v3.407h-1.574v-6.736h1.493v.871a2.471 2.471 0 0 1 .981-.708 3.512 3.512 0 0 1 1.33-.239A2.8 2.8 0 0 1 72 70.3" transform="translate(59.355 62.403)" fill="#fff"></path><path id="Tracé_18454" d="M75.189 76.674a1.838 1.838 0 0 1-.672.34 3.008 3.008 0 0 1-.835.116 2.365 2.365 0 0 1-1.709-.581 2.25 2.25 0 0 1-.6-1.692v-3.243h-1.107v-1.261h1.106v-1.539h1.569v1.539h1.8v1.262h-1.8v3.2a1.07 1.07 0 0 0 .239.751.893.893 0 0 0 .691.26 1.379 1.379 0 0 0 .878-.279Z" transform="translate(63.037 61.734)" fill="#fff"></path></g></g></svg> 