<svg xmlns="http://www.w3.org/2000/svg" width="256" height="101.416" viewBox="0 0 256 101.416"><g id="Groupe_16974" transform="translate(-671.999 -41.013)"><g id="Groupe_16905" transform="translate(672 41.014)"><g id="Groupe_16942" transform="translate(-.001)"><g id="Groupe_16972"><path id="Tracé_17769" d="M76.136 75.388A40.788 40.788 0 0 0 86.5 76.725c.624 0 1.243-.019 1.859-.047.171-.007.341-.018.512-.027q.744-.044 1.481-.112c.129-.012.259-.022.389-.035q.918-.1 1.826-.231c.1-.015.2-.032.294-.048q.787-.124 1.564-.277l.379-.076q1.844-.383 3.626-.929l.2-.062q.885-.276 1.752-.589l.017-.005c21.154-6.57 20.665-25.591 20.665-26.723C121.065 19.558 100.492 0 72.487 0a51 51 0 0 0-6.272.4 50.614 50.614 0 0 0-37.11 76.463l-9.429 23.475 25.639-6.866a50.635 50.635 0 0 0 75.748-28.21 45.825 45.825 0 0 1-10.483 9.066l.01-.016a45.192 45.192 0 0 1-14.4 5.907l-.055.012q-.705.153-1.42.284l-.2.037q-.732.131-1.473.24l-.036.005q-.766.111-1.542.2c-.079.009-.158.015-.236.023q-.618.065-1.24.112a43.437 43.437 0 0 1-1.545.091l-.439.018c-.5.017-1 .027-1.506.027A45.233 45.233 0 0 1 55.3 68.795c-.2-.194-.41-.385-.611-.582a24.889 24.889 0 0 1-7.173-17.5c0-.765.047-1.52.115-2.269a24.969 24.969 0 1 1 28.505 26.944" transform="translate(-19.677 -.001)" fill="#263c88"/></g></g></g><g id="Groupe_16973" transform="translate(793.469 51.768)" fill="#263c88"><path id="Tracé_18011" d="M5.206 209.169A5.032 5.032 0 0 1 0 204.118v-.027a5.079 5.079 0 0 1 5.234-5.079 5.032 5.032 0 0 1 5.205 5.051v.028a5.078 5.078 0 0 1-5.233 5.078m2.974-5.078A2.984 2.984 0 0 0 5.206 201a2.937 2.937 0 0 0-2.947 3.059v.028a2.984 2.984 0 0 0 2.974 3.086 2.937 2.937 0 0 0 2.947-3.059Z" transform="translate(.001 -148.703)"/><path id="Tracé_18012" d="M17.864 201.178v2.091h4.686v1.964h-4.686v3.8H15.7v-9.821h7.478v1.964Z" transform="translate(-2.637 -148.738)"/><path id="Tracé_18013" d="M29.772 201.178v2.091h4.686v1.964h-4.686v3.8h-2.16v-9.821h7.478v1.964Z" transform="translate(-4.639 -148.738)"/><path id="Rectangle_3175" transform="translate(32.975 50.474)" d="M0 0h2.16v9.822H0z"/><path id="Tracé_18014" d="M50.542 209.17a4.958 4.958 0 0 1-5.037-5.051v-.027a4.992 4.992 0 0 1 5.121-5.08 5.064 5.064 0 0 1 3.873 1.515l-1.374 1.586A3.624 3.624 0 0 0 50.612 201a2.91 2.91 0 0 0-2.848 3.058v.029a2.916 2.916 0 0 0 2.848 3.086 3.549 3.549 0 0 0 2.582-1.15l1.375 1.388a5.021 5.021 0 0 1-4.027 1.754" transform="translate(-7.648 -148.703)"/><path id="Tracé_18015" d="M81.2 209.035h-3.83v-9.821h3.83a4.9 4.9 0 0 1 5.219 4.883v.028a4.917 4.917 0 0 1-5.219 4.91m2.961-4.91a2.822 2.822 0 0 0-2.961-2.962h-1.674v5.922H81.2a2.8 2.8 0 0 0 2.961-2.932Z" transform="translate(-13.002 -148.738)"/><path id="Tracé_18016" d="M109.444 209.035v-9.822h2.161v7.857h4.9v1.964Z" transform="translate(-18.394 -148.739)"/><path id="Tracé_18017" d="M120.534 201.459h-.87v-2.245h2.274v1.894a2.3 2.3 0 0 1-2.6 2.623l-.181-.884c.967-.1 1.444-.589 1.374-1.389" transform="translate(-20.027 -148.738)"/><path id="Tracé_18018" d="m145 209.021-.9-2.2h-4.153l-.9 2.2h-2.2l4.209-9.891h1.992l4.209 9.891Zm-2.974-7.3-1.3 3.185h2.609Z" transform="translate(-23.003 -148.723)"/><path id="Tracé_18019" d="M155.675 209.189c-2.637 0-4.25-1.473-4.25-4.363v-5.612h2.16v5.556c0 1.6.8 2.427 2.119 2.427s2.119-.8 2.119-2.358v-5.625h2.161v5.542c0 2.974-1.67 4.433-4.308 4.433" transform="translate(-25.453 -148.738)"/><path id="Tracé_18020" d="M34.5 231.925v-8.53l-3.887 5.655h-.056l-3.887-5.655v8.53h-.7V222.1h.687l3.942 5.809 3.943-5.809h.687v9.822Z" transform="translate(-25.531 -152.586)"/><path id="Tracé_18021" d="m49.487 231.911-1.249-2.749h-5.793l-1.245 2.749h-.758l4.574-9.891h.7l4.575 9.891Zm-4.139-9.092-2.6 5.682h5.182Z" transform="translate(-27.963 -152.57)"/><path id="Tracé_18022" d="m62.688 231.925-3.129-4.069h-3.212v4.069h-.73V222.1h4.125c2.118 0 3.506 1.151 3.506 2.793v.027c0 1.642-1.22 2.582-2.876 2.806l3.241 4.2Zm-.168-7c0-1.319-1.039-2.146-2.82-2.146h-3.353v4.421h3.311c1.641 0 2.863-.827 2.863-2.245Z" transform="translate(-30.514 -152.584)"/><path id="Tracé_18023" d="M71.8 222.777v9.148h-.73v-9.148h-3.427v-.677h7.576v.674Z" transform="translate(-32.537 -152.587)"/><path id="Rectangle_3176" transform="translate(45.7 69.517)" d="M0 0h.73v9.822H0z"/><path id="Tracé_18024" d="m93.341 231.925-6.916-8.725v8.727h-.7V222.1h.688l6.776 8.545V222.1h.7v9.822Z" transform="translate(-35.575 -152.586)"/><path id="Rectangle_3177" transform="translate(62.031 69.517)" d="M0 0h.73v9.822H0z"/><path id="Tracé_18025" d="m114.3 232.186-1.375-1.249a4.815 4.815 0 0 1-3.17 1.121 4.9 4.9 0 0 1-4.925-5.051v-.027a4.94 4.94 0 1 1 9.877-.028c.014.013.014.013 0 .028a5.188 5.188 0 0 1-1.291 3.466l1.4 1.178Zm-.35-5.205a4.25 4.25 0 0 0-4.2-4.419 4.2 4.2 0 0 0-4.167 4.391v.028a4.249 4.249 0 0 0 4.194 4.419 4.018 4.018 0 0 0 2.61-.926l-1.908-1.628.518-.575 1.88 1.711a4.56 4.56 0 0 0 1.067-2.974Z" transform="translate(-38.787 -152.551)"/><path id="Tracé_18026" d="M124.374 232.079c-2.357 0-4.026-1.487-4.026-4.237V222.1h.73v5.668c0 2.315 1.248 3.649 3.324 3.649 1.993 0 3.269-1.207 3.269-3.578V222.1h.73v5.655c0 2.819-1.641 4.321-4.026 4.321" transform="translate(-41.395 -152.586)"/><path id="Tracé_18027" d="M134.2 231.925V222.1h6.986v.674h-6.257v3.858h5.625v.674h-5.625v3.942h6.327v.674Z" transform="translate(-43.722 -152.586)"/><path id="Tracé_18028" d="M27.7 175.879c-11.085 0-19.04-8.263-19.04-18.476v-.1c0-10.213 8.057-18.578 19.143-18.578S46.84 146.984 46.84 157.2v.1c0 10.213-8.058 18.579-19.144 18.579m10.88-18.579c0-6.159-4.516-11.291-10.881-11.291s-10.777 5.03-10.777 11.188v.1c0 6.159 4.516 11.291 10.881 11.291s10.777-5.03 10.777-11.188Z" transform="translate(-8.654 -138.57)"/><path id="Tracé_18029" d="M80.1 175.387H66.092v-35.926H80.1c11.291 0 19.091 7.75 19.091 17.86v.1c0 10.11-7.8 17.964-19.091 17.964m10.828-17.964c0-6.363-4.362-10.829-10.828-10.829H74v21.659h6.1c6.466 0 10.828-4.363 10.828-10.727Z" transform="translate(-18.308 -138.694)"/><path id="Tracé_18030" d="M142.565 163.261a10.5 10.5 0 0 1-5.791 4.673 10.65 10.65 0 0 1-11.912-3.464l10.194-3.493 8.944-3.066 8.032-2.752a18.864 18.864 0 0 0-.908-4.079l-.033-.1c-3.311-9.662-13.513-14.9-24-11.307S111.693 153.8 115 163.458l.033.1c3.311 9.662 13.514 14.9 24 11.307a19.306 19.306 0 0 0 11-9.2ZM129.356 146.6a10.754 10.754 0 0 1 12.961 4.984l-20.071 6.878a10.579 10.579 0 0 1 7.109-11.862" transform="translate(-26.36 -138.541)"/><path id="Tracé_18031" d="M132.273 205.773a2.8 2.8 0 0 1-1.546 1.247 2.84 2.84 0 0 1-3.179-.925l2.72-.932 2.388-.818 2.143-.735a4.962 4.962 0 0 0-.242-1.088l-.008-.027a5.1 5.1 0 0 0-9.632 3.329l.008.026a4.912 4.912 0 0 0 6.406 3.017 5.151 5.151 0 0 0 2.936-2.453Zm-3.526-4.446a2.87 2.87 0 0 1 3.459 1.331l-5.356 1.835a2.824 2.824 0 0 1 1.9-3.166" transform="translate(-20.949 -148.731)"/><path id="Tracé_18032" d="M65.439 205.773a2.8 2.8 0 0 1-1.546 1.247 2.841 2.841 0 0 1-3.179-.925l2.72-.932 2.388-.818 2.144-.735a5.06 5.06 0 0 0-.242-1.088l-.009-.027a5.1 5.1 0 0 0-9.631 3.329l.008.026a4.911 4.911 0 0 0 6.406 3.017 5.152 5.152 0 0 0 2.935-2.453Zm-3.525-4.446a2.87 2.87 0 0 1 3.459 1.331l-5.357 1.835a2.825 2.825 0 0 1 1.9-3.166" transform="translate(-9.715 -148.731)"/><path id="Tracé_18033" d="M97.063 205.773a2.8 2.8 0 0 1-1.546 1.247 2.84 2.84 0 0 1-3.179-.925l2.72-.932 2.388-.818 2.143-.735a4.962 4.962 0 0 0-.242-1.088l-.008-.027a5.1 5.1 0 0 0-9.632 3.329l.008.026a4.912 4.912 0 0 0 6.406 3.017 5.151 5.151 0 0 0 2.936-2.453Zm-3.526-4.446A2.87 2.87 0 0 1 97 202.658l-5.356 1.835a2.824 2.824 0 0 1 1.9-3.166" transform="translate(-15.03 -148.731)"/></g></g></svg>