<svg xmlns="http://www.w3.org/2000/svg" width="341.699" height="54.857" viewBox="0 0 341.699 54.857"><g id="Groupe_17220" transform="translate(-698.309 -52.27)" fill="#072975"><path id="Tracé_20198" d="M708.492 52.769q7.176 0 10.994 2.553t3.818 7.935a8.969 8.969 0 0 1-1.541 5.451 10.151 10.151 0 0 1-4.439 3.289q.966 1.2 2.024 2.737t2.093 3.22q1.035 1.679 2 3.5t1.795 3.561h-8.023q-.878-1.564-1.778-3.174t-1.846-3.126q-.947-1.518-1.87-2.875t-1.845-2.463h-3.544v11.638h-7.176V53.597a40.682 40.682 0 0 1 4.853-.644q2.507-.184 4.485-.184Zm.414 6.118q-.782 0-1.4.046t-1.173.092v8.648h2.021q4.048 0 5.8-1.012a3.658 3.658 0 0 0 1.748-3.45 3.508 3.508 0 0 0-1.771-3.335 10.952 10.952 0 0 0-5.225-.989Zm48.342 26.128q-.532-1.662-1.144-3.413t-1.22-3.487h-12.45l-1.21 3.5q-.607 1.75-1.13 3.4h-7.452q1.8-5.152 3.414-9.522t3.16-8.234q1.546-3.864 3.045-7.337t3.113-6.785h6.8q1.571 3.312 3.1 6.785t3.073 7.337q1.548 3.864 3.166 8.234t3.421 9.522Zm-8.621-24.656q-.24.694-.7 1.89t-1.053 2.766q-.591 1.567-1.321 3.45t-1.486 3.95h9.115q-.732-2.074-1.417-3.963t-1.3-3.456q-.617-1.567-1.083-2.761t-.755-1.876Zm33.465-7.222q.83 1.518 1.914 3.749t2.26 4.83q1.176 2.6 2.329 5.313t2.168 5.106l2.168-5.106q1.153-2.714 2.329-5.314 1.176-2.6 2.26-4.83t1.914-3.749h6.532q.46 3.174.851 7.107t.69 8.188q.3 4.255.552 8.533t.437 8.051h-6.992q-.138-4.646-.368-10.12t-.69-11.04q-.831 1.932-1.846 4.278t-2.007 4.692q-.992 2.346-1.915 4.485t-1.569 3.657h-5.014q-.646-1.518-1.569-3.657t-1.915-4.485q-.992-2.346-2.007-4.692t-1.846-4.278q-.46 5.566-.69 11.04t-.368 10.12h-6.992q.184-3.772.437-8.05t.552-8.533q.3-4.255.69-8.188t.851-7.107Zm58.782 31.878q-.532-1.662-1.144-3.413t-1.218-3.487h-12.45l-1.21 3.5q-.607 1.753-1.13 3.4h-7.448q1.8-5.152 3.414-9.522t3.16-8.234q1.546-3.864 3.045-7.337t3.115-6.785h6.8q1.571 3.312 3.1 6.785t3.073 7.337q1.548 3.864 3.166 8.234t3.415 9.522Zm-8.621-24.656q-.24.694-.7 1.89t-1.054 2.766q-.591 1.567-1.321 3.45t-1.483 3.95h9.115q-.732-2.074-1.417-3.963t-1.3-3.456q-.617-1.567-1.083-2.761t-.755-1.876Zm44.873-7.222v6.118h-9.612v25.76h-7.176v-25.76h-9.614v-6.118Zm21.668 32.522a16.056 16.056 0 0 1-5.8-.943 10.8 10.8 0 0 1-4.02-2.622 10.474 10.474 0 0 1-2.346-4 16.444 16.444 0 0 1-.759-5.129V53.137h7.176v19.228a10.815 10.815 0 0 0 .437 3.289 6.061 6.061 0 0 0 1.2 2.208 4.269 4.269 0 0 0 1.84 1.219 7.31 7.31 0 0 0 2.369.368 5.8 5.8 0 0 0 4.255-1.61q1.633-1.61 1.633-5.474V53.137h7.176v19.826a16.21 16.21 0 0 1-.782 5.152 10.543 10.543 0 0 1-2.399 4.025 10.727 10.727 0 0 1-4.094 2.6 16.958 16.958 0 0 1-5.886.919Zm24.656-.644V53.137h21.524v6.026h-14.348v6.252h12.742v5.888h-12.742v7.682h15.41v6.03Zm53.774-6.164v6.164h-21.3V53.137h7.176v25.714Zm30.5 0v6.164h-21.3V53.137h7.176v25.714Zm9.198 6.164V53.137h21.528v6.026h-14.352v6.252h12.742v5.888h-12.742v7.682h15.41v6.03Z" stroke="rgba(0,0,0,0)" stroke-width="1"/><path id="Tracé_20197" d="M6.958-7.336A2.388 2.388 0 0 0 6.6-7.6a4.339 4.339 0 0 0-.63-.329 5.427 5.427 0 0 0-.8-.273 3.516 3.516 0 0 0-.882-.112 1.978 1.978 0 0 0-1.19.294.973.973 0 0 0-.398.82.849.849 0 0 0 .147.511 1.271 1.271 0 0 0 .427.357 3.592 3.592 0 0 0 .707.28q.427.126.987.266.728.2 1.323.42A3.585 3.585 0 0 1 7.3-4.8a2.312 2.312 0 0 1 .638.8 2.669 2.669 0 0 1 .224 1.155 2.876 2.876 0 0 1-.3 1.365 2.529 2.529 0 0 1-.812.917 3.529 3.529 0 0 1-1.176.511A5.9 5.9 0 0 1 4.48.112a7.482 7.482 0 0 1-2.212-.336 6.829 6.829 0 0 1-1.96-.952l.854-1.666a2.7 2.7 0 0 0 .455.329 6.955 6.955 0 0 0 .777.406 6.045 6.045 0 0 0 .994.343 4.491 4.491 0 0 0 1.12.14q1.6 0 1.6-1.022a.838.838 0 0 0-.182-.546 1.544 1.544 0 0 0-.526-.392 4.958 4.958 0 0 0-.812-.308q-.476-.14-1.064-.308a9.046 9.046 0 0 1-1.239-.427 3.257 3.257 0 0 1-.875-.546A2.046 2.046 0 0 1 .889-5.9a2.522 2.522 0 0 1-.175-.987 3.09 3.09 0 0 1 .28-1.344 2.716 2.716 0 0 1 .777-.98 3.52 3.52 0 0 1 1.155-.595 4.773 4.773 0 0 1 1.414-.2 5.487 5.487 0 0 1 1.932.329 7.2 7.2 0 0 1 1.54.777ZM11.578 0v-9.94h1.932V0Zm13.4-8.246H21.8V0h-1.92v-8.246H16.7V-9.94h8.274ZM35.07-1.694V0h-6.9v-9.94h6.776v1.694H30.1v2.394h4.186v1.568H30.1v2.59ZM48.1.07a4.516 4.516 0 0 1-1.981-.427A4.865 4.865 0 0 1 44.6-1.491a5.16 5.16 0 0 1-.987-1.617 5.146 5.146 0 0 1-.35-1.862 5 5 0 0 1 .371-1.9 5.254 5.254 0 0 1 1.022-1.61A4.876 4.876 0 0 1 46.2-9.6a4.592 4.592 0 0 1 1.946-.413 4.365 4.365 0 0 1 1.967.441 4.913 4.913 0 0 1 1.519 1.155 5.318 5.318 0 0 1 .98 1.624 5.11 5.11 0 0 1 .35 1.848 5.026 5.026 0 0 1-.364 1.9 5.15 5.15 0 0 1-1.008 1.6 4.847 4.847 0 0 1-1.54 1.102A4.592 4.592 0 0 1 48.1.07Zm-2.88-5.04a4 4 0 0 0 .2 1.246 3.326 3.326 0 0 0 .567 1.064 2.819 2.819 0 0 0 .91.742 2.618 2.618 0 0 0 1.225.28 2.6 2.6 0 0 0 1.239-.287 2.821 2.821 0 0 0 .91-.763 3.4 3.4 0 0 0 .56-1.071 3.977 3.977 0 0 0 .189-1.211 3.873 3.873 0 0 0-.2-1.246 3.435 3.435 0 0 0-.574-1.064 2.74 2.74 0 0 0-.91-.735 2.642 2.642 0 0 0-1.211-.273A2.638 2.638 0 0 0 46.872-8a2.762 2.762 0 0 0-.91.756 3.4 3.4 0 0 0-.553 1.064 3.977 3.977 0 0 0-.189 1.21ZM56.406 0v-9.94h6.678v1.694h-4.746v2.562h3.948v1.568h-3.948V0Zm10 0v-9.94h6.674v1.694h-4.746v2.562h3.948v1.568h-3.948V0Zm10 0v-9.94h1.924V0Zm5.354-5.04a5.148 5.148 0 0 1 .329-1.8 4.891 4.891 0 0 1 .959-1.589 4.856 4.856 0 0 1 1.54-1.134A4.756 4.756 0 0 1 86.66-10a4.518 4.518 0 0 1 2.373.6 3.845 3.845 0 0 1 1.491 1.568L89.04-6.8a2.538 2.538 0 0 0-.476-.707 2.381 2.381 0 0 0-.6-.455 2.7 2.7 0 0 0-.672-.245 3.187 3.187 0 0 0-.686-.077 2.606 2.606 0 0 0-1.267.294 2.787 2.787 0 0 0-.9.763 3.365 3.365 0 0 0-.539 1.06 4.027 4.027 0 0 0-.182 1.183 3.859 3.859 0 0 0 .21 1.267 3.372 3.372 0 0 0 .595 1.071 2.976 2.976 0 0 0 .924.742 2.527 2.527 0 0 0 1.183.28 3.112 3.112 0 0 0 .7-.084 2.661 2.661 0 0 0 .693-.266 2.626 2.626 0 0 0 .609-.469 2.165 2.165 0 0 0 .448-.693l1.582.91a2.988 2.988 0 0 1-.679.987 4.369 4.369 0 0 1-.994.721 5.077 5.077 0 0 1-1.183.448 5.178 5.178 0 0 1-1.232.154 4.234 4.234 0 0 1-1.944-.448 5.067 5.067 0 0 1-1.519-1.169 5.424 5.424 0 0 1-.994-1.638 5.112 5.112 0 0 1-.357-1.869ZM93.926 0v-9.94h1.932V0Zm12.866-1.694V0h-6.9v-9.94h6.776v1.694h-4.844v2.394h4.186v1.568h-4.186v2.59ZM110.264 0v-9.94h1.936v8.246h5.068V0Zm15.078 0v-9.94h3.612a5.4 5.4 0 0 1 2.135.392 4.383 4.383 0 0 1 1.533 1.064 4.406 4.406 0 0 1 .924 1.575 5.923 5.923 0 0 1 .308 1.925 5.818 5.818 0 0 1-.343 2.051 4.378 4.378 0 0 1-.987 1.568 4.444 4.444 0 0 1-1.547 1.008 5.462 5.462 0 0 1-2.023.357Zm6.566-4.984a4.23 4.23 0 0 0-.2-1.316 2.943 2.943 0 0 0-.574-1.036 2.555 2.555 0 0 0-.931-.672 3.141 3.141 0 0 0-1.253-.238h-1.68v6.552h1.68a3.025 3.025 0 0 0 1.267-.252 2.594 2.594 0 0 0 .924-.693 3.082 3.082 0 0 0 .567-1.043 4.183 4.183 0 0 0 .2-1.302Zm12.32 3.29V0h-6.9v-9.94h6.772v1.694h-4.844v2.394h4.186v1.568h-4.186v2.59ZM153.02 0v-9.94h1.932v8.246h5.068V0Zm12.964-9.94h1.708l3.78 9.94h-1.988l-.924-2.478h-3.472L164.178 0h-1.988Zm2.226 6.1-1.372-3.906-1.428 3.91Zm10.6-1.2a5.148 5.148 0 0 1 .329-1.8 4.891 4.891 0 0 1 .959-1.589 4.856 4.856 0 0 1 1.54-1.134 4.756 4.756 0 0 1 2.07-.437 4.518 4.518 0 0 1 2.373.6 3.845 3.845 0 0 1 1.491 1.568L186.088-6.8a2.538 2.538 0 0 0-.476-.707 2.381 2.381 0 0 0-.6-.455 2.7 2.7 0 0 0-.672-.245 3.187 3.187 0 0 0-.686-.077 2.606 2.606 0 0 0-1.267.294 2.787 2.787 0 0 0-.9.763 3.364 3.364 0 0 0-.539 1.064 4.027 4.027 0 0 0-.182 1.183 3.859 3.859 0 0 0 .21 1.267 3.372 3.372 0 0 0 .6 1.071 2.976 2.976 0 0 0 .924.742 2.527 2.527 0 0 0 1.183.28 3.112 3.112 0 0 0 .7-.084 2.661 2.661 0 0 0 .693-.266 2.626 2.626 0 0 0 .609-.469 2.165 2.165 0 0 0 .448-.693l1.582.91a2.988 2.988 0 0 1-.679.987 4.369 4.369 0 0 1-.994.721 5.077 5.077 0 0 1-1.183.448 5.178 5.178 0 0 1-1.232.154 4.234 4.234 0 0 1-1.946-.448 5.068 5.068 0 0 1-1.519-1.169 5.424 5.424 0 0 1-.994-1.638 5.112 5.112 0 0 1-.36-1.873ZM195.118.07a4.516 4.516 0 0 1-1.981-.427 4.865 4.865 0 0 1-1.526-1.134 5.16 5.16 0 0 1-.987-1.617 5.147 5.147 0 0 1-.35-1.862 5 5 0 0 1 .371-1.9 5.254 5.254 0 0 1 1.022-1.61 4.876 4.876 0 0 1 1.547-1.12 4.592 4.592 0 0 1 1.946-.413 4.365 4.365 0 0 1 1.967.441 4.913 4.913 0 0 1 1.519 1.155 5.318 5.318 0 0 1 .98 1.624 5.11 5.11 0 0 1 .35 1.848 5.027 5.027 0 0 1-.364 1.9 5.15 5.15 0 0 1-1.008 1.6 4.847 4.847 0 0 1-1.54 1.106 4.592 4.592 0 0 1-1.946.409Zm-2.884-5.04a4 4 0 0 0 .2 1.246A3.326 3.326 0 0 0 193-2.66a2.819 2.819 0 0 0 .91.742 2.618 2.618 0 0 0 1.225.28 2.6 2.6 0 0 0 1.239-.287 2.821 2.821 0 0 0 .91-.763 3.4 3.4 0 0 0 .56-1.071 3.978 3.978 0 0 0 .189-1.211 3.873 3.873 0 0 0-.2-1.246 3.435 3.435 0 0 0-.574-1.064 2.74 2.74 0 0 0-.91-.735 2.642 2.642 0 0 0-1.211-.273 2.638 2.638 0 0 0-1.252.288 2.762 2.762 0 0 0-.91.756 3.4 3.4 0 0 0-.553 1.064 3.977 3.977 0 0 0-.189 1.21ZM211.526 0v-6.58l-2.562 4.9h-1.05l-2.562-4.9V0h-1.932v-9.94h2.072l2.94 5.656L211.4-9.94h2.058V0ZM225.6 0v-6.58l-2.562 4.9h-1.05l-2.562-4.9V0h-1.936v-9.94h2.072l2.94 5.656 2.968-5.656h2.058V0Zm10.16-1.638a2.217 2.217 0 0 0 1.155-.28 2.258 2.258 0 0 0 .756-.728 3.007 3.007 0 0 0 .406-1.029 5.951 5.951 0 0 0 .119-1.2V-9.94h1.918v5.068a7.246 7.246 0 0 1-.245 1.918 4.4 4.4 0 0 1-.77 1.568 3.69 3.69 0 0 1-1.351 1.064 4.569 4.569 0 0 1-1.974.392 4.519 4.519 0 0 1-2.023-.413 3.775 3.775 0 0 1-1.351-1.092 4.358 4.358 0 0 1-.749-1.575 7.429 7.429 0 0 1-.231-1.862V-9.94h1.932v5.068a6.022 6.022 0 0 0 .119 1.211 3.007 3.007 0 0 0 .406 1.029 2.215 2.215 0 0 0 .749.721 2.194 2.194 0 0 0 1.134.273Zm10.192-4.732V0h-1.932v-9.94h1.5l5.18 6.524v-6.51h1.932V0h-1.568Zm17.612 4.676V0h-6.9v-9.94h6.776v1.694h-4.844v2.394h4.186v1.568h-4.186v2.59Z" transform="translate(698 107.016)"/></g></svg>